<?xml version="1.0" encoding="UTF-8" standalone="no"?>
<!-- Created with Inkscape (http://www.inkscape.org/) -->

<svg
   xmlns:dc="http://purl.org/dc/elements/1.1/"
   xmlns:cc="http://creativecommons.org/ns#"
   xmlns:rdf="http://www.w3.org/1999/02/22-rdf-syntax-ns#"
   xmlns:svg="http://www.w3.org/2000/svg"
   xmlns="http://www.w3.org/2000/svg"
   xmlns:sodipodi="http://sodipodi.sourceforge.net/DTD/sodipodi-0.dtd"
   xmlns:inkscape="http://www.inkscape.org/namespaces/inkscape"
   width="744.09448819"
   height="1052.3622047"
   id="svg2"
   version="1.1"
   inkscape:version="0.48.5 r10040"
   sodipodi:docname="New document 1">
  <defs
     id="defs4" />
  <sodipodi:namedview
     id="base"
     pagecolor="#ffffff"
     bordercolor="#666666"
     borderopacity="1.0"
     inkscape:pageopacity="0.0"
     inkscape:pageshadow="2"
     inkscape:zoom="0.35"
     inkscape:cx="687.37219"
     inkscape:cy="538.55458"
     inkscape:document-units="px"
     inkscape:current-layer="layer1"
     showgrid="false"
     inkscape:window-width="1156"
     inkscape:window-height="609"
     inkscape:window-x="234"
     inkscape:window-y="274"
     inkscape:window-maximized="0" />
  <metadata
     id="metadata7">
    <rdf:RDF>
      <cc:Work
         rdf:about="">
        <dc:format>image/svg+xml</dc:format>
        <dc:type
           rdf:resource="http://purl.org/dc/dcmitype/StillImage" />
        <dc:title></dc:title>
      </cc:Work>
    </rdf:RDF>
  </metadata>
  <g
     inkscape:label="Layer 1"
     inkscape:groupmode="layer"
     id="layer1">
    <path
       style="fill:none;stroke:#000000;stroke-width:1px;stroke-linecap:butt;stroke-linejoin:miter;stroke-opacity:1"
       d="m 106.42857,365.21933 c 107.76466,529.44349 124.69978,535.87532 125.71428,575.71428 l 33.57144,-5.71428 -128.57143,-577.14286 c -30.50839,7.25395 -0.19921,0.14442 -30.71429,7.14286 z"
       id="path2987"
       inkscape:connector-curvature="0"
       sodipodi:nodetypes="ccccc" />
    <path
       style="fill:none;stroke:#000000;stroke-width:1px;stroke-linecap:butt;stroke-linejoin:miter;stroke-opacity:1"
       d="m 138.57143,364.50504 c 64.7619,-8.57143 117.58206,27.27467 187.14286,-29.28571 59.61308,-61.69654 126.48547,-67.73839 191.42857,-88.57143 l 60.71428,238.57142 c -62.53154,26.67563 -101.42279,43.10241 -177.14285,95 -94.73283,53.24193 -136.8967,17.18316 -210,12.14286 C 165.82395,501.62913 156.66667,441.6479 138.57143,364.50504 z"
       id="path2989"
       inkscape:connector-curvature="0"
       sodipodi:nodetypes="ccccccc" />
    <path
       style="fill:none;stroke:#000000;stroke-width:1px;stroke-linecap:butt;stroke-linejoin:miter;stroke-opacity:1"
       d="m 218.22268,402.52772 28.56963,151.7785 146.698,2.75561 121.68749,-72.40538 -40.4061,-146.47212 -118.46269,64.25238 z"
       id="path2991"
       inkscape:connector-curvature="0"
       sodipodi:nodetypes="ccccccc" />
    <path
       style="fill:none;stroke:#000000;stroke-width:1px;stroke-linecap:butt;stroke-linejoin:miter;stroke-opacity:1"
       d="m 236.93589,420.16949 28.82524,115.0051 22.59101,1.67368 -19.438,-62.05875 25.25382,0.49021 -3.6222,-18.47862 -25.84555,0.81582 -4.75489,-21.80494 38.1407,1.27629 c 0,0 -1.01016,-16.87673 -5.05077,-16.87673 -4.04061,0 -56.09936,-0.0421 -56.09936,-0.0421 z"
       id="path2993"
       inkscape:connector-curvature="0"
       sodipodi:nodetypes="cccccccccsc" />
    <path
       style="fill:none;stroke:#000000;stroke-width:1px;stroke-linecap:butt;stroke-linejoin:miter;stroke-opacity:1"
       d="m 325.14656,422.56797 23.11097,116.31111 20.69325,0.54098 -9.56055,-43.60988 19.14213,1.96954 17.86586,-14.26468 12.71356,46.17115 15.69326,-10.6425 -33.16172,-111.43367 -14.26469,7.90791 13.25453,51.5388 -15.0087,13.5504 -20.98912,-3.27556 -12.66282,-53.97753 z"
       id="path2995"
       inkscape:connector-curvature="0"
       sodipodi:nodetypes="ccccccccccccccc" />
    <path
       style="fill:none;stroke:#000000;stroke-width:1px;stroke-linecap:butt;stroke-linejoin:miter;stroke-opacity:1"
       d="m 425.44754,390.9066 -12.78536,30.99784 20.81582,63.45759 35.18202,5.3256 8.62219,-21.33575 18.40683,4.04061 1.42857,-13.84628 -16.80494,-6.60187 6.18346,-14.78464 -17.6628,-46.48804 z"
       id="path2997"
       inkscape:connector-curvature="0"
       sodipodi:nodetypes="ccccccccccc" />
    <path
       style="fill:none;stroke:#000000;stroke-width:1px;stroke-linecap:butt;stroke-linejoin:miter;stroke-opacity:1"
       d="m 440.42651,407.88486 -10.76505,14.73387 14.92821,47.05004 19.26469,2.78536 4.16316,-7.12183 -11.35678,-6.89777 2.73459,-11.53009 8.96883,4.21393 4.58157,-15.39739 -15.34663,-28.84627 z"
       id="path2999"
       inkscape:connector-curvature="0"
       sodipodi:nodetypes="ccccccccccc" />
  </g>
</svg>
