<?xml version="1.0" encoding="UTF-8" standalone="no"?>
<!-- Created with Inkscape (http://www.inkscape.org/) -->

<svg
   xmlns:dc="http://purl.org/dc/elements/1.1/"
   xmlns:cc="http://creativecommons.org/ns#"
   xmlns:rdf="http://www.w3.org/1999/02/22-rdf-syntax-ns#"
   xmlns:svg="http://www.w3.org/2000/svg"
   xmlns="http://www.w3.org/2000/svg"
   xmlns:sodipodi="http://sodipodi.sourceforge.net/DTD/sodipodi-0.dtd"
   xmlns:inkscape="http://www.inkscape.org/namespaces/inkscape"
   width="213.33333"
   height="213.33333"
   id="svg2"
   version="1.1"
   inkscape:version="0.92.1 r15371"
   sodipodi:docname="network.svg"
   inkscape:export-filename="network_150x150.png"
   inkscape:export-xdpi="67.5"
   inkscape:export-ydpi="67.5"
   viewBox="0 0 200 200">
  <defs
     id="defs4">
    <marker
       inkscape:stockid="Arrow1Mend"
       orient="auto"
       refY="0"
       refX="0"
       id="Arrow1Mend"
       style="overflow:visible">
      <path
         id="path3780"
         d="M 0,0 5,-5 -12.5,0 5,5 Z"
         style="fill-rule:evenodd;stroke:#000000;stroke-width:1.00000003pt"
         transform="matrix(-0.4,0,0,-0.4,-4,0)"
         inkscape:connector-curvature="0" />
    </marker>
    <marker
       inkscape:stockid="Arrow1Lstart"
       orient="auto"
       refY="0"
       refX="0"
       id="Arrow1Lstart"
       style="overflow:visible">
      <path
         id="path3771"
         d="M 0,0 5,-5 -12.5,0 5,5 Z"
         style="fill-rule:evenodd;stroke:#000000;stroke-width:1.00000003pt"
         transform="matrix(0.8,0,0,0.8,10,0)"
         inkscape:connector-curvature="0" />
    </marker>
  </defs>
  <sodipodi:namedview
     id="base"
     pagecolor="#ffffff"
     bordercolor="#666666"
     borderopacity="1.0"
     inkscape:pageopacity="0.0"
     inkscape:pageshadow="2"
     inkscape:zoom="1.4"
     inkscape:cx="121.12448"
     inkscape:cy="23.084014"
     inkscape:document-units="px"
     inkscape:current-layer="layer1"
     showgrid="false"
     inkscape:window-width="1320"
     inkscape:window-height="927"
     inkscape:window-x="140"
     inkscape:window-y="56"
     inkscape:window-maximized="0"
     inkscape:snap-grids="true" />
  <metadata
     id="metadata7">
    <rdf:RDF>
      <cc:Work
         rdf:about="">
        <dc:format>image/svg+xml</dc:format>
        <dc:type
           rdf:resource="http://purl.org/dc/dcmitype/StillImage" />
        <dc:title />
      </cc:Work>
    </rdf:RDF>
  </metadata>
  <g
     inkscape:label="Layer 1"
     inkscape:groupmode="layer"
     id="layer1"
     transform="translate(0,-852.36218)"
     style="display:inline">
    <g
       id="g3864"
       transform="translate(194.28571,17.142857)">
      <path
         transform="translate(0,852.36218)"
         inkscape:connector-curvature="0"
         id="path3026"
         d="m -101.42857,70.357143 -1.42857,16.071428 5.714283,13.214286 8.571428,13.928573 2.5,-19.285716 L -96.428571,82.5 Z"
         style="fill:none;stroke:#9f9f9f;stroke-width:3.5999999;stroke-linecap:butt;stroke-linejoin:miter;stroke-miterlimit:4;stroke-dasharray:none;stroke-opacity:1" />
      <path
         transform="translate(0,852.36218)"
         inkscape:connector-curvature="0"
         id="path3028"
         d="m -86.071429,93.571429 c 2.142858,0 28.214286,-5.714286 28.214286,-5.714286 L -70,77.5 -86.071429,66.428571 l -15.000001,3.928572 4.285716,11.428571 z"
         style="fill:none;stroke:#9f9f9f;stroke-width:3.5999999;stroke-linecap:butt;stroke-linejoin:miter;stroke-miterlimit:4;stroke-dasharray:none;stroke-opacity:1" />
      <path
         transform="translate(0,852.36218)"
         inkscape:connector-curvature="0"
         id="path3030"
         d="m -84.852814,88.251875 -2.146574,-2.146575 17.803939,-3.788072 -0.126269,-0.126269 0.126269,0.126269"
         style="fill:none;stroke:#9f9f9f;stroke-width:1.60000002;stroke-linecap:butt;stroke-linejoin:miter;stroke-miterlimit:4;stroke-dasharray:none;stroke-opacity:1" />
      <path
         transform="translate(0,852.36218)"
         inkscape:connector-curvature="0"
         id="path3032"
         d="m -87.125657,81.054538 -8.712566,1.767767 -0.757614,16.288709 v 0 0"
         style="fill:none;stroke:#9f9f9f;stroke-width:1.60000002;stroke-linecap:butt;stroke-linejoin:miter;stroke-miterlimit:4;stroke-dasharray:none;stroke-opacity:1" />
      <path
         transform="translate(0,852.36218)"
         inkscape:connector-curvature="0"
         id="path3034"
         d="m -79.044437,79.034233 8.333759,-1.641498 -0.252538,0.252538"
         style="fill:none;stroke:#9f9f9f;stroke-width:1.60000002;stroke-linecap:butt;stroke-linejoin:miter;stroke-miterlimit:4;stroke-dasharray:none;stroke-opacity:1" />
      <path
         transform="translate(0,852.36218)"
         inkscape:connector-curvature="0"
         id="path3036"
         d="m -73.993674,74.993622 -22.98097,4.545687 v 0"
         style="fill:none;stroke:#9f9f9f;stroke-width:1.60000002;stroke-linecap:butt;stroke-linejoin:miter;stroke-miterlimit:4;stroke-dasharray:none;stroke-opacity:1" />
      <path
         transform="translate(0,852.36218)"
         inkscape:connector-curvature="0"
         id="path3038"
         d="m -78.034284,72.720779 -6.060915,1.262691"
         style="fill:none;stroke:#9f9f9f;stroke-width:1.60000002;stroke-linecap:butt;stroke-linejoin:miter;stroke-miterlimit:4;stroke-dasharray:none;stroke-opacity:1" />
      <path
         transform="translate(0,852.36218)"
         inkscape:connector-curvature="0"
         id="path3040"
         d="m -80.938473,70.574205 -18.182746,3.535534"
         style="fill:none;stroke:#9f9f9f;stroke-width:1.60000002;stroke-linecap:butt;stroke-linejoin:miter;stroke-miterlimit:4;stroke-dasharray:none;stroke-opacity:1" />
      <path
         transform="translate(0,852.36218)"
         inkscape:connector-curvature="0"
         id="path3042"
         d="m -84.221469,67.796286 -4.545686,1.515228 v 0"
         style="fill:none;stroke:#9f9f9f;stroke-width:1.60000002;stroke-linecap:butt;stroke-linejoin:miter;stroke-miterlimit:4;stroke-dasharray:none;stroke-opacity:1" />
      <path
         transform="translate(0,852.36218)"
         inkscape:connector-curvature="0"
         id="path3044"
         d="m -95.080608,70.447936 -5.555842,1.515229"
         style="fill:none;stroke:#9f9f9f;stroke-width:1.60000002;stroke-linecap:butt;stroke-linejoin:miter;stroke-miterlimit:4;stroke-dasharray:none;stroke-opacity:1" />
      <path
         transform="translate(0,852.36218)"
         inkscape:connector-curvature="0"
         id="path3046"
         d="m -91.039998,75.119892 -7.576144,1.767766"
         style="fill:none;stroke:#9f9f9f;stroke-width:1.60000002;stroke-linecap:butt;stroke-linejoin:miter;stroke-miterlimit:4;stroke-dasharray:none;stroke-opacity:1" />
      <path
         transform="translate(0,852.36218)"
         inkscape:connector-curvature="0"
         id="path3048"
         d="m -97.858528,79.791847 -0.126269,6.81853"
         style="fill:none;stroke:#9f9f9f;stroke-width:1.60000002;stroke-linecap:butt;stroke-linejoin:miter;stroke-miterlimit:4;stroke-dasharray:none;stroke-opacity:1" />
      <path
         transform="translate(0,852.36218)"
         inkscape:connector-curvature="0"
         id="path3050"
         d="m -99.247488,77.140197 -0.252538,7.702413"
         style="fill:none;stroke:#9f9f9f;stroke-width:1.60000002;stroke-linecap:butt;stroke-linejoin:miter;stroke-miterlimit:4;stroke-dasharray:none;stroke-opacity:1" />
      <path
         transform="translate(0,852.36218)"
         inkscape:connector-curvature="0"
         id="path3052"
         d="m -100.13137,74.488546 -0.63135,5.303301"
         style="fill:none;stroke:#9f9f9f;stroke-width:1.60000002;stroke-linecap:butt;stroke-linejoin:miter;stroke-miterlimit:4;stroke-dasharray:none;stroke-opacity:1" />
      <path
         transform="translate(0,852.36218)"
         inkscape:connector-curvature="0"
         id="path3054"
         d="m -97.984797,90.145911 -0.378807,6.439722"
         style="fill:none;stroke:#9f9f9f;stroke-width:1.60000002;stroke-linecap:butt;stroke-linejoin:miter;stroke-miterlimit:4;stroke-dasharray:none;stroke-opacity:1" />
      <path
         transform="translate(0,852.36218)"
         inkscape:connector-curvature="0"
         id="path3056"
         d="m -99.752564,86.862915 -0.252536,5.934646"
         style="fill:none;stroke:#9f9f9f;stroke-width:1.60000002;stroke-linecap:butt;stroke-linejoin:miter;stroke-miterlimit:4;stroke-dasharray:none;stroke-opacity:1" />
      <path
         inkscape:connector-curvature="0"
         id="path3058"
         d="m -101.14153,935.56329 -0.50507,5.80838"
         style="fill:none;stroke:#9f9f9f;stroke-width:1.60000002;stroke-linecap:butt;stroke-linejoin:miter;stroke-miterlimit:4;stroke-dasharray:none;stroke-opacity:1" />
      <path
         transform="translate(0,852.36218)"
         inkscape:connector-curvature="0"
         id="path3060"
         d="m -86.873119,113.12688 18.687822,28.28427 33.587572,-11.74302 3.788072,-11.99556 -28.031733,-25.380085 -26.011428,5.808377 z"
         style="fill:none;stroke:#9f9f9f;stroke-width:3.5999999;stroke-linecap:butt;stroke-linejoin:miter;stroke-miterlimit:4;stroke-dasharray:none;stroke-opacity:1" />
      <path
         transform="translate(0,852.36218)"
         inkscape:connector-curvature="0"
         id="path3062"
         d="m -31.440998,117.5463 -4.293148,1.01015 -4.419418,10.2278 -22.167865,6.75146 3.214286,-9.46428 -7.5,-9.28572 22.5,-6.07142 8.035714,8.21428"
         style="fill:none;stroke:#9f9f9f;stroke-width:1.60000002;stroke-linecap:butt;stroke-linejoin:miter;stroke-miterlimit:4;stroke-dasharray:none;stroke-opacity:1" />
      <path
         transform="translate(0,852.36218)"
         inkscape:connector-curvature="0"
         id="path3064"
         d="m -60,126.07143 -3.035714,1.25 -21.428572,-28.928573 v 0 0 h -0.178571"
         style="fill:none;stroke:#9f9f9f;stroke-width:3.5999999;stroke-linecap:butt;stroke-linejoin:miter;stroke-miterlimit:4;stroke-dasharray:none;stroke-opacity:1" />
      <path
         transform="translate(0,852.36218)"
         inkscape:connector-curvature="0"
         id="path3066"
         d="m -63.928571,127.14286 -4.107143,14.28571"
         style="fill:none;stroke:#9f9f9f;stroke-width:3.5999999;stroke-linecap:butt;stroke-linejoin:miter;stroke-miterlimit:4;stroke-dasharray:none;stroke-opacity:1" />
      <path
         transform="translate(0,852.36218)"
         inkscape:connector-curvature="0"
         id="path3068"
         d="m -61.607143,116.96429 c 0.714286,1.07142 4.910714,4.82142 4.910714,4.82142 l 0.178572,6.07143"
         style="fill:none;stroke:#9f9f9f;stroke-width:1.60000002;stroke-linecap:butt;stroke-linejoin:miter;stroke-miterlimit:4;stroke-dasharray:none;stroke-opacity:1" />
      <path
         transform="translate(0,852.36218)"
         inkscape:connector-curvature="0"
         id="path3070"
         d="m -58.571429,116.25 4.464286,4.73214 0.267857,5.80357"
         style="fill:none;stroke:#9f9f9f;stroke-width:1.60000002;stroke-linecap:butt;stroke-linejoin:miter;stroke-miterlimit:4;stroke-dasharray:none;stroke-opacity:1" />
      <path
         transform="translate(0,852.36218)"
         inkscape:connector-curvature="0"
         id="path3072"
         d="m -55.803572,115.44643 4.464286,4.55357 0.357143,6.07143"
         style="fill:none;stroke:#9f9f9f;stroke-width:1.60000002;stroke-linecap:butt;stroke-linejoin:miter;stroke-miterlimit:4;stroke-dasharray:none;stroke-opacity:1" />
      <path
         transform="translate(0,852.36218)"
         inkscape:connector-curvature="0"
         id="path3074"
         d="m -52.678572,114.64286 4.375,4.64285 0.08929,5.35715"
         style="fill:none;stroke:#9f9f9f;stroke-width:1.60000002;stroke-linecap:butt;stroke-linejoin:miter;stroke-miterlimit:4;stroke-dasharray:none;stroke-opacity:1" />
      <path
         transform="translate(0,852.36218)"
         inkscape:connector-curvature="0"
         id="path3076"
         d="m -49.732143,114.10714 3.571429,3.83929 0.357142,5.26786"
         style="fill:none;stroke:#9f9f9f;stroke-width:1.60000002;stroke-linecap:butt;stroke-linejoin:miter;stroke-miterlimit:4;stroke-dasharray:none;stroke-opacity:1" />
      <path
         transform="translate(0,852.36218)"
         inkscape:connector-curvature="0"
         id="path3078"
         d="m -46.964286,113.48214 3.75,3.92857 -0.267857,4.73215"
         style="fill:none;stroke:#9f9f9f;stroke-width:1.60000002;stroke-linecap:butt;stroke-linejoin:miter;stroke-miterlimit:4;stroke-dasharray:none;stroke-opacity:1" />
      <path
         transform="translate(0,852.36218)"
         inkscape:connector-curvature="0"
         id="path3080"
         d="m -102.58929,73.839286 -10.625,-10.357143 -11.25,-7.410715 -19.46428,-8.839285 -13.125,-7.857143 -2.58929,-4.910715 1.875,-3.75 9.64286,-5 21.33929,-5.089285 11.875,-3.928572 8.21428,-4.375 0.17857,-2.8571426 -2.85714,-2.4107143 -8.30357,-4.5535714 -10.625,-3.21428573 10.44643,-0.44642857 9.73214,4.8214286 4.28571,4.6428571 -0.0893,6.1607139 c 0,0 -3.03572,2.053572 -3.66072,2.678572 -0.625,0.625 -17.32142,7.410714 -17.32142,7.410714 l -16.875,4.375 -10.35715,4.464286 -1.16071,2.321428 6.42857,3.482143 16.60714,6.517857 11.69643,5.803572 10.26786,6.696428 7.85714,5.357143 4.910716,5 -6.428576,1.964286 z"
         style="fill:none;stroke:#9f9f9f;stroke-width:3.5999999;stroke-linecap:butt;stroke-linejoin:round;stroke-miterlimit:4;stroke-dasharray:none;stroke-opacity:1" />
      <path
         transform="translate(0,852.36218)"
         inkscape:connector-curvature="0"
         id="path3082"
         d="m -59.599,138.7595 2.399112,2.39911 16.162441,-6.56599 -1.641498,5.05077 -15.152288,4.41941 1.010152,-3.15672 -1.515229,3.40926 -3.282995,-4.54569 z"
         style="fill:none;stroke:#9f9f9f;stroke-width:3.5999999;stroke-linecap:butt;stroke-linejoin:miter;stroke-miterlimit:4;stroke-dasharray:none;stroke-opacity:1" />
    </g>
  </g>
</svg>
