<?xml version="1.0" encoding="UTF-8" standalone="no"?>
<!-- Created with Inkscape (http://www.inkscape.org/) -->

<svg
   xmlns:dc="http://purl.org/dc/elements/1.1/"
   xmlns:cc="http://creativecommons.org/ns#"
   xmlns:rdf="http://www.w3.org/1999/02/22-rdf-syntax-ns#"
   xmlns:svg="http://www.w3.org/2000/svg"
   xmlns="http://www.w3.org/2000/svg"
   xmlns:sodipodi="http://sodipodi.sourceforge.net/DTD/sodipodi-0.dtd"
   xmlns:inkscape="http://www.inkscape.org/namespaces/inkscape"
   width="200"
   height="200"
   id="svg2"
   version="1.1"
   inkscape:version="0.91 r13725"
   sodipodi:docname="user_logo_default2.svg"
   inkscape:export-filename="user0.png"
   inkscape:export-xdpi="45"
   inkscape:export-ydpi="45">
  <defs
     id="defs4">
    <marker
       inkscape:stockid="Arrow1Mend"
       orient="auto"
       refY="0.0"
       refX="0.0"
       id="Arrow1Mend"
       style="overflow:visible;">
      <path
         id="path3780"
         d="M 0.0,0.0 L 5.0,-5.0 L -12.5,0.0 L 5.0,5.0 L 0.0,0.0 z "
         style="fill-rule:evenodd;stroke:#000000;stroke-width:1.0pt;"
         transform="scale(0.4) rotate(180) translate(10,0)" />
    </marker>
    <marker
       inkscape:stockid="Arrow1Lstart"
       orient="auto"
       refY="0.0"
       refX="0.0"
       id="Arrow1Lstart"
       style="overflow:visible">
      <path
         id="path3771"
         d="M 0.0,0.0 L 5.0,-5.0 L -12.5,0.0 L 5.0,5.0 L 0.0,0.0 z "
         style="fill-rule:evenodd;stroke:#000000;stroke-width:1.0pt"
         transform="scale(0.8) translate(12.5,0)" />
    </marker>
  </defs>
  <sodipodi:namedview
     id="base"
     pagecolor="#ffffff"
     bordercolor="#666666"
     borderopacity="1.0"
     inkscape:pageopacity="0.0"
     inkscape:pageshadow="2"
     inkscape:zoom="1.4"
     inkscape:cx="-53.224346"
     inkscape:cy="181.81885"
     inkscape:document-units="px"
     inkscape:current-layer="layer1"
     showgrid="false"
     inkscape:window-width="1320"
     inkscape:window-height="927"
     inkscape:window-x="405"
     inkscape:window-y="89"
     inkscape:window-maximized="0"
     inkscape:snap-grids="true" />
  <metadata
     id="metadata7">
    <rdf:RDF>
      <cc:Work
         rdf:about="">
        <dc:format>image/svg+xml</dc:format>
        <dc:type
           rdf:resource="http://purl.org/dc/dcmitype/StillImage" />
        <dc:title></dc:title>
      </cc:Work>
    </rdf:RDF>
  </metadata>
  <g
     inkscape:label="Layer 1"
     inkscape:groupmode="layer"
     id="layer1"
     transform="translate(0,-852.36218)"
     style="display:inline">
    <path
       style="fill:none;fill-rule:evenodd;stroke:#9f9f9f;stroke-width:8.75466824;stroke-linecap:butt;stroke-linejoin:miter;stroke-miterlimit:4;stroke-dasharray:none;stroke-opacity:1"
       d="M 75.403176,1009.2505 C 27.741157,965.30573 -6.6921625,851.65517 78.917754,876.17263 c 67.965826,23.43751 93.645676,-20.81703 97.509986,44.83671 2.55395,23.42186 -7.54697,50.44876 -16.00507,65.79866 -9.15618,19.3115 -24.11077,23.1657 -15.29376,36.6339 -55.504364,-20.7403 -39.31886,9.2559 -69.725734,-14.1914 z"
       id="path4161"
       inkscape:connector-curvature="0"
       sodipodi:nodetypes="cccccc" />
    <path
       style="fill:#9f9f9f;fill-opacity:1;fill-rule:evenodd;stroke:#9f9f9f;stroke-width:8.75466824;stroke-linecap:butt;stroke-linejoin:miter;stroke-miterlimit:4;stroke-dasharray:none;stroke-opacity:1"
       d="m 61.227615,939.52389 c 3.122153,17.80301 23.600894,8.34667 24.642671,-0.34347 -3.980699,-15.42632 -23.789275,-11.24326 -24.642671,0.34347 z"
       id="path4165"
       inkscape:connector-curvature="0"
       sodipodi:nodetypes="ccc" />
    <path
       style="fill:none;fill-rule:evenodd;stroke:#9f9f9f;stroke-width:8.75466824;stroke-linecap:butt;stroke-linejoin:miter;stroke-miterlimit:4;stroke-dasharray:none;stroke-opacity:1"
       d="m 84.369076,985.04858 c 7.58609,-3.32498 22.264124,-5.22733 21.125624,-14.33523 -0.68773,12.08406 13.16797,7.53516 19.97971,14.96027 -15.40625,-6.45283 -26.068737,-0.29815 -41.105334,-0.62504 z"
       id="path4169"
       inkscape:connector-curvature="0"
       sodipodi:nodetypes="cccc" />
    <path
       style="fill:#9f9f9f;fill-opacity:1;fill-rule:evenodd;stroke:#9f9f9f;stroke-width:8.75466824;stroke-linecap:butt;stroke-linejoin:miter;stroke-miterlimit:4;stroke-dasharray:none;stroke-opacity:1"
       d="m 95.183381,963.2942 c -1.178973,-8.72478 3.78859,-10.24227 9.053849,-10.94002 6.29515,1.10653 9.86341,2.54003 9.80833,9.17957 0.86182,3.25761 -0.56849,5.04169 -4.40118,5.28142 l -9.682587,0.25149 c -2.633261,-0.21704 -4.486329,-1.21424 -4.778412,-3.77246 z"
       id="path4171"
       inkscape:connector-curvature="0"
       sodipodi:nodetypes="cccccc" />
    <path
       style="display:inline;fill:#9f9f9f;fill-opacity:1;fill-rule:evenodd;stroke:#9f9f9f;stroke-width:8.75466824;stroke-linecap:butt;stroke-linejoin:miter;stroke-miterlimit:4;stroke-dasharray:none;stroke-opacity:1"
       d="m 124.74979,936.03437 c 2.86314,18.49662 24.14095,10.37067 25.09629,1.34196 -3.65045,-16.02732 -24.31369,-13.38011 -25.09629,-1.34196 z"
       id="path4165-3"
       inkscape:connector-curvature="0"
       sodipodi:nodetypes="ccc" />
  </g>
</svg>
