<?xml version="1.0" encoding="UTF-8" standalone="no"?>
<svg
   xmlns:dc="http://purl.org/dc/elements/1.1/"
   xmlns:cc="http://creativecommons.org/ns#"
   xmlns:rdf="http://www.w3.org/1999/02/22-rdf-syntax-ns#"
   xmlns:svg="http://www.w3.org/2000/svg"
   xmlns="http://www.w3.org/2000/svg"
   xmlns:sodipodi="http://sodipodi.sourceforge.net/DTD/sodipodi-0.dtd"
   xmlns:inkscape="http://www.inkscape.org/namespaces/inkscape"
   height="32px"
   style="enable-background:new 0 0 32 32;"
   version="1.1"
   viewBox="0 0 32 32"
   width="32px"
   xml:space="preserve"
   id="svg2"
   inkscape:version="0.48.3.1 r9886"
   sodipodi:docname="refresh_captcha.svg"
   inkscape:export-filename="/home/seakg/developing/fhq.git/src/img/index/refresh_captcha.png"
   inkscape:export-xdpi="180"
   inkscape:export-ydpi="180"><metadata
     id="metadata15"><rdf:RDF><cc:Work
         rdf:about=""><dc:format>image/svg+xml</dc:format><dc:type
           rdf:resource="http://purl.org/dc/dcmitype/StillImage" /><dc:title></dc:title></cc:Work></rdf:RDF></metadata><defs
     id="defs13" /><sodipodi:namedview
     pagecolor="#ffffff"
     bordercolor="#666666"
     borderopacity="1"
     objecttolerance="10"
     gridtolerance="10"
     guidetolerance="10"
     inkscape:pageopacity="0"
     inkscape:pageshadow="2"
     inkscape:window-width="640"
     inkscape:window-height="480"
     id="namedview11"
     showgrid="false"
     inkscape:zoom="10.429825"
     inkscape:cx="10.185032"
     inkscape:cy="15.56665"
     inkscape:window-x="453"
     inkscape:window-y="83"
     inkscape:window-maximized="0"
     inkscape:current-layer="svg2" /><path
     d="m 27.877,19.662 c 0.385,-1.23 0.607,-2.531 0.607,-3.884 0,-7.222 -5.83,-13.101 -13.029,-13.194 v 4.238 c 4.863,0.093 8.793,4.071 8.793,8.956 0,0.678 -0.088,1.332 -0.232,1.966 l -3.963,-1.966 2.76,8.199 8.197,-2.762 -3.133,-1.553 z"
     id="path7"
     inkscape:connector-curvature="0"
     style="fill:#9f9f9f;fill-opacity:1" /><path
     d="m 7.752,16.222 c 0,-0.678 0.088,-1.332 0.232,-1.967 l 3.963,1.967 -2.76,-8.199 -8.197,2.762 3.133,1.553 c -0.384,1.23 -0.607,2.531 -0.607,3.885 0,7.223 5.83,13.1 13.03,13.194 V 25.179 C 11.682,25.086 7.752,21.107 7.752,16.222 z"
     id="path9"
     inkscape:connector-curvature="0"
     style="fill:#9f9f9f;fill-opacity:1" /></svg>