<?xml version="1.0" encoding="UTF-8" standalone="no"?>
<!-- Created with Inkscape (http://www.inkscape.org/) -->

<svg
   xmlns:dc="http://purl.org/dc/elements/1.1/"
   xmlns:cc="http://creativecommons.org/ns#"
   xmlns:rdf="http://www.w3.org/1999/02/22-rdf-syntax-ns#"
   xmlns:svg="http://www.w3.org/2000/svg"
   xmlns="http://www.w3.org/2000/svg"
   xmlns:sodipodi="http://sodipodi.sourceforge.net/DTD/sodipodi-0.dtd"
   xmlns:inkscape="http://www.inkscape.org/namespaces/inkscape"
   width="200"
   height="200"
   id="svg2"
   version="1.1"
   inkscape:version="0.48.4 r9939"
   sodipodi:docname="users.svg"
   inkscape:export-filename="user.png"
   inkscape:export-xdpi="67.083908"
   inkscape:export-ydpi="67.083908">
  <defs
     id="defs4">
    <marker
       inkscape:stockid="Arrow1Mend"
       orient="auto"
       refY="0.0"
       refX="0.0"
       id="Arrow1Mend"
       style="overflow:visible;">
      <path
         id="path3780"
         d="M 0.0,0.0 L 5.0,-5.0 L -12.5,0.0 L 5.0,5.0 L 0.0,0.0 z "
         style="fill-rule:evenodd;stroke:#000000;stroke-width:1.0pt;"
         transform="scale(0.4) rotate(180) translate(10,0)" />
    </marker>
    <marker
       inkscape:stockid="Arrow1Lstart"
       orient="auto"
       refY="0.0"
       refX="0.0"
       id="Arrow1Lstart"
       style="overflow:visible">
      <path
         id="path3771"
         d="M 0.0,0.0 L 5.0,-5.0 L -12.5,0.0 L 5.0,5.0 L 0.0,0.0 z "
         style="fill-rule:evenodd;stroke:#000000;stroke-width:1.0pt"
         transform="scale(0.8) translate(12.5,0)" />
    </marker>
  </defs>
  <sodipodi:namedview
     id="base"
     pagecolor="#ffffff"
     bordercolor="#666666"
     borderopacity="1.0"
     inkscape:pageopacity="0.0"
     inkscape:pageshadow="2"
     inkscape:zoom="1.979899"
     inkscape:cx="330.27044"
     inkscape:cy="65.316243"
     inkscape:document-units="px"
     inkscape:current-layer="layer1"
     showgrid="false"
     inkscape:window-width="1865"
     inkscape:window-height="1056"
     inkscape:window-x="55"
     inkscape:window-y="24"
     inkscape:window-maximized="1"
     inkscape:snap-grids="true" />
  <metadata
     id="metadata7">
    <rdf:RDF>
      <cc:Work
         rdf:about="">
        <dc:format>image/svg+xml</dc:format>
        <dc:type
           rdf:resource="http://purl.org/dc/dcmitype/StillImage" />
        <dc:title></dc:title>
      </cc:Work>
    </rdf:RDF>
  </metadata>
  <g
     inkscape:label="Layer 1"
     inkscape:groupmode="layer"
     id="layer1"
     transform="translate(0,-852.36218)"
     style="display:inline">
    <path
       sodipodi:type="arc"
       style="fill:none;stroke:#9f9f9f;stroke-width:9.99999969;stroke-linecap:round;stroke-linejoin:round;stroke-miterlimit:4;stroke-opacity:1;stroke-dasharray:none;stroke-dashoffset:0;marker-start:none;marker-mid:none;marker-end:none"
       id="path2989"
       sodipodi:cx="100.51018"
       sodipodi:cy="101.00505"
       sodipodi:rx="100.51018"
       sodipodi:ry="100.0051"
       d="m 201.02036,101.00505 c 0,55.23129 -44.99994,100.0051 -100.51018,100.0051 C 44.999939,201.01015 0,156.23634 0,101.00505 0,45.773761 44.999939,0.99995422 100.51018,0.99995422 c 55.51024,0 100.51018,44.77380678 100.51018,100.00509578 z"
       transform="matrix(0.94198405,0,0,0.95189954,5.8548202,856.6232)" />
    <path
       style="fill:none;stroke:#9f9f9f;stroke-width:3.62299991;stroke-linecap:butt;stroke-linejoin:miter;stroke-miterlimit:4;stroke-opacity:1;stroke-dasharray:none"
       d="m 17.501497,934.40149 49.878725,-3.33072 12.378729,36.57291 -42.79407,32.53282 z"
       id="path2990"
       inkscape:connector-curvature="0"
       sodipodi:nodetypes="ccccc" />
    <path
       style="fill:none;stroke:#9f9f9f;stroke-width:3.62299991;stroke-linecap:butt;stroke-linejoin:miter;stroke-miterlimit:4;stroke-opacity:1;stroke-dasharray:none;display:inline"
       d="m 42.264833,1004.3536 41.544964,-33.63531 6.017939,0.15856 6.262279,-5.47664 14.177315,4.9692 7.8638,0.0268 16.0585,-0.12352 -3.92303,3.78589 -19.82347,-0.74159 -14.28434,-7.93553 -7.154303,6.41508 6.384439,7.50339 16.840334,2.58856 8.54551,3.04066 -2.49671,3.68002 -7.58574,-1.35632 -12.596832,-4.67019 -19.411633,-0.55117 -10.672626,8.23978 4.761476,9.39127 9.244346,-4.56782 9.966785,0.25483 16.800954,8.79265 z"
       id="path2990-3"
       inkscape:connector-curvature="0"
       sodipodi:nodetypes="cccccccccccccccccccccccc" />
    <path
       style="fill:none;stroke:#9f9f9f;stroke-width:3.62299991;stroke-linecap:butt;stroke-linejoin:miter;stroke-miterlimit:4;stroke-opacity:1;stroke-dasharray:none;display:inline"
       d="m 39.46897,1009.4297 68.82959,-0.6088 2.4246,-3.042 3.5032,2.3076 -6.167,7.8993 -67.993407,-0.1709 z"
       id="path2990-3-7"
       inkscape:connector-curvature="0"
       sodipodi:nodetypes="ccccccc" />
    <path
       style="fill:none;stroke:#9f9f9f;stroke-width:3.62299991;stroke-linecap:butt;stroke-linejoin:miter;stroke-miterlimit:4;stroke-opacity:1;stroke-dasharray:none;display:inline"
       d="m 123.89832,921.15773 2.08812,-8.73767 15.13038,-13.01956 16.43218,-2.68247 23.93385,18.65033 -10.6158,15.8548 -11.48638,-13.50472 -7.93198,0.62575 -3.51681,10.36745 -16.88628,-12.47981 z"
       id="path2990-3-2"
       inkscape:connector-curvature="0"
       sodipodi:nodetypes="ccccccccccc" />
    <path
       style="fill:none;stroke:#9f9f9f;stroke-width:3.62299991;stroke-linecap:butt;stroke-linejoin:miter;stroke-miterlimit:4;stroke-opacity:1;stroke-dasharray:none;display:inline"
       d="m 130.77671,948.42844 8.15954,-0.16629 4.73091,3.28899 4.74641,-4.86425 1.86003,2.13974 -3.97286,4.00338 7.319,4.74671 14.73157,-9.70118 3.20598,-15.75059 -12.73283,-14.59136 -8.04902,1.5937 -3.24352,9.29395 -16.26969,-12.97362 -7.21545,8.40997 3.62006,9.44116 7.79011,-5.3925 2.48011,5.74946 -4.23728,3.19592 -4.9557,-1.07331 1.87556,4.80124 -0.49104,3.16696 z"
       id="path2990-3-5"
       inkscape:connector-curvature="0"
       sodipodi:nodetypes="cccccccccccccccccccccc" />
    <path
       style="fill:none;stroke:#9f9f9f;stroke-width:3.62299991;stroke-linecap:butt;stroke-linejoin:miter;stroke-miterlimit:4;stroke-opacity:1;stroke-dasharray:none;display:inline"
       d="m 109.64857,987.62584 46.60353,16.23386 -9.91573,9.0446 21.4162,-19.28405 -0.29865,-28.31586 7.77381,-4.1834 5.16981,-23.56044 0.94437,26.69587 15.35277,-11.9004 0.0347,57.37838 -40.90937,21.0933 -52.11252,-30.7019 z"
       id="path2990-3-5-7"
       inkscape:connector-curvature="0"
       sodipodi:nodetypes="ccccccccccccc" />
    <path
       style="fill:none;stroke:#9f9f9f;stroke-width:3.62299991;stroke-linecap:butt;stroke-linejoin:miter;stroke-miterlimit:4;stroke-opacity:1;stroke-dasharray:none;display:inline"
       d="m 131.28956,974.9768 -8.48074,-1.16793 -2.31658,11.05505 8.05924,2.48698 38.33109,4.38446 -4.04984,-37.2458 -3.15121,20.28006 z"
       id="path2990-0"
       inkscape:connector-curvature="0"
       sodipodi:nodetypes="cccccccc" />
    <path
       style="fill:none;stroke:#9f9f9f;stroke-width:3.62299991;stroke-linecap:butt;stroke-linejoin:miter;stroke-miterlimit:4;stroke-opacity:1;stroke-dasharray:none;display:inline"
       d="m 26.733739,941.97667 35.989127,-3.07817 8.843195,26.97645 -30.419701,22.93633 z"
       id="path2990-6"
       inkscape:connector-curvature="0"
       sodipodi:nodetypes="ccccc" />
    <path
       style="fill:none;stroke:#9f9f9f;stroke-width:3.62299991;stroke-linecap:butt;stroke-linejoin:miter;stroke-miterlimit:4;stroke-opacity:1;stroke-dasharray:none;display:inline"
       d="m 34.814959,948.29013 24.119835,-3.33072 1.014511,2.48026 -24.86386,1.72313 z"
       id="path2990-2"
       inkscape:connector-curvature="0"
       sodipodi:nodetypes="ccccc" />
    <path
       style="fill:none;stroke:#9f9f9f;stroke-width:3.62299991;stroke-linecap:butt;stroke-linejoin:miter;stroke-miterlimit:4;stroke-opacity:1;stroke-dasharray:none;display:inline"
       d="m 43.527526,974.68037 13.008157,-6.86626 0.761973,2.22772 -12.994568,8.03658 z"
       id="path2990-2-5"
       inkscape:connector-curvature="0"
       sodipodi:nodetypes="ccccc" />
    <path
       style="fill:none;stroke:#9f9f9f;stroke-width:3.62299991;stroke-linecap:butt;stroke-linejoin:miter;stroke-miterlimit:4;stroke-opacity:1;stroke-dasharray:none;display:inline"
       d="m 40.875875,961.29583 19.826687,-6.10865 0.509434,2.22773 -19.560559,7.27897 z"
       id="path2990-2-5-0"
       inkscape:connector-curvature="0"
       sodipodi:nodetypes="ccccc" />
    <path
       style="fill:none;stroke:#9f9f9f;stroke-width:3.62299990999999988;stroke-linecap:butt;stroke-linejoin:miter;stroke-miterlimit:4;stroke-opacity:1;stroke-dasharray:none"
       d="M 51.741784,928.23007 35.49268,879.41939 85.37141,876.08867 97.75014,912.66158 72.170661,932.10753"
       id="path2990-05"
       inkscape:connector-curvature="0"
       sodipodi:nodetypes="ccccc" />
    <path
       style="fill:none;stroke:#9f9f9f;stroke-width:3.62299990999999988;stroke-linecap:butt;stroke-linejoin:miter;stroke-miterlimit:4;stroke-opacity:1;stroke-dasharray:none;display:inline"
       d="m 123.00897,930.16695 -6.92229,-2.56639 -19.41164,-0.55117 -10.67262,8.23978 4.76147,9.39127 9.24435,-4.56782 9.96678,0.25484 16.80096,8.79264 -48.74087,0.15489 m -3.671947,-11.55064 27.437817,-22.02815 6.01794,0.15856 6.26228,-5.47665 8.10589,3.1835 m -0.53848,1.34044 -7.49863,-4.54267 -7.15431,6.41508 6.38444,7.50339 6.12604,0.80285"
       id="path2990-3-0"
       inkscape:connector-curvature="0"
       sodipodi:nodetypes="ccccccccccccccccccc" />
    <path
       style="fill:none;stroke:#9f9f9f;stroke-width:3.62299990999999988;stroke-linecap:butt;stroke-linejoin:miter;stroke-miterlimit:4;stroke-opacity:1;stroke-dasharray:none;display:inline"
       d="m 80.138731,954.09047 46.151019,-0.25168 -0.2392,7.1649 -44.064839,-0.34944"
       id="path2990-3-7-2"
       inkscape:connector-curvature="0"
       sodipodi:nodetypes="cccc" />
    <path
       style="fill:none;stroke:#9f9f9f;stroke-width:3.62299990999999988;stroke-linecap:butt;stroke-linejoin:miter;stroke-miterlimit:4;stroke-opacity:1;stroke-dasharray:none;display:inline"
       d="m 145.79466,864.49688 -3.75669,4.37861 3.62006,9.44116 7.79011,-5.3925 2.48011,5.74947 -4.23728,3.19591 -4.9557,-1.0733 1.87556,4.80123 -0.49104,3.16696 0.64811,4.68192 8.15954,-0.16629 4.73091,3.28899 4.74641,-4.86425 1.86003,2.13974 -3.97286,4.00338 7.319,4.74671 8.87468,-5.84424"
       id="path2990-3-5-9"
       inkscape:connector-curvature="0"
       sodipodi:nodetypes="ccccccccccccccccc" />
    <path
       style="fill:none;stroke:#9f9f9f;stroke-width:3.62299990999999988;stroke-linecap:butt;stroke-linejoin:miter;stroke-miterlimit:4;stroke-opacity:1;stroke-dasharray:none;display:inline"
       d="m 156.48978,965.48844 -22.35145,-12.82348 -5.692,1.79277 -1.82269,-6.1041 -4.92495,-3.20989 0.7625,-13.57143"
       id="path2990-3-5-7-3"
       inkscape:connector-curvature="0"
       sodipodi:nodetypes="cccccc" />
    <path
       style="fill:none;stroke:#9f9f9f;stroke-width:3.62299990999999988;stroke-linecap:butt;stroke-linejoin:miter;stroke-miterlimit:4;stroke-opacity:1;stroke-dasharray:none;display:inline"
       d="m 57.286037,927.81259 -12.561107,-40.81801 35.98912,-3.07818 8.8432,26.97646 -20.327789,15.32707"
       id="path2990-6-0"
       inkscape:connector-curvature="0"
       sodipodi:nodetypes="ccccc" />
    <path
       style="fill:none;stroke:#9f9f9f;stroke-width:3.62299991;stroke-linecap:butt;stroke-linejoin:miter;stroke-miterlimit:4;stroke-opacity:1;stroke-dasharray:none;display:inline"
       d="m 56.199007,902.59375 23.226973,-5.11643 0.121653,1.5874 -23.078146,4.4017 z"
       id="path2990-2-3"
       inkscape:connector-curvature="0"
       sodipodi:nodetypes="ccccc" />
    <path
       style="fill:none;stroke:#9f9f9f;stroke-width:3.62299990999999988;stroke-linecap:butt;stroke-linejoin:miter;stroke-miterlimit:4;stroke-opacity:1;stroke-dasharray:none;display:inline"
       d="m 61.51871,919.69827 13.00816,-6.86626 0.76197,2.22773 -12.99456,8.03658 z"
       id="path2990-2-5-6"
       inkscape:connector-curvature="0"
       sodipodi:nodetypes="ccccc" />
    <path
       style="fill:none;stroke:#9f9f9f;stroke-width:3.62299991;stroke-linecap:butt;stroke-linejoin:miter;stroke-miterlimit:4;stroke-opacity:1;stroke-dasharray:none;display:inline"
       d="m 52.259917,893.09945 17.505261,-2.0015 0.866573,1.51344 -17.06056,3.70754 z"
       id="path2990-2-5-0-1"
       inkscape:connector-curvature="0"
       sodipodi:nodetypes="ccccc" />
    <path
       style="fill:none;stroke:#9f9f9f;stroke-width:3.62299991;stroke-linecap:butt;stroke-linejoin:miter;stroke-miterlimit:4;stroke-opacity:1;stroke-dasharray:none;display:inline"
       d="m 58.504258,910.01977 22.86983,-5.65215 -0.05692,0.51598 -22.006717,8.1517 z"
       id="path2990-2-3-7"
       inkscape:connector-curvature="0"
       sodipodi:nodetypes="ccccc" />
  </g>
</svg>
