<?xml version="1.0" encoding="UTF-8" standalone="no"?>
<!-- Created with Inkscape (http://www.inkscape.org/) -->

<svg
   xmlns:dc="http://purl.org/dc/elements/1.1/"
   xmlns:cc="http://creativecommons.org/ns#"
   xmlns:rdf="http://www.w3.org/1999/02/22-rdf-syntax-ns#"
   xmlns:svg="http://www.w3.org/2000/svg"
   xmlns="http://www.w3.org/2000/svg"
   xmlns:sodipodi="http://sodipodi.sourceforge.net/DTD/sodipodi-0.dtd"
   xmlns:inkscape="http://www.inkscape.org/namespaces/inkscape"
   width="200"
   height="200"
   id="svg2"
   version="1.1"
   inkscape:version="0.48.4 r9939"
   sodipodi:docname="user.svg"
   inkscape:export-filename="user.png"
   inkscape:export-xdpi="67.083908"
   inkscape:export-ydpi="67.083908">
  <defs
     id="defs4">
    <marker
       inkscape:stockid="Arrow1Mend"
       orient="auto"
       refY="0.0"
       refX="0.0"
       id="Arrow1Mend"
       style="overflow:visible;">
      <path
         id="path3780"
         d="M 0.0,0.0 L 5.0,-5.0 L -12.5,0.0 L 5.0,5.0 L 0.0,0.0 z "
         style="fill-rule:evenodd;stroke:#000000;stroke-width:1.0pt;"
         transform="scale(0.4) rotate(180) translate(10,0)" />
    </marker>
    <marker
       inkscape:stockid="Arrow1Lstart"
       orient="auto"
       refY="0.0"
       refX="0.0"
       id="Arrow1Lstart"
       style="overflow:visible">
      <path
         id="path3771"
         d="M 0.0,0.0 L 5.0,-5.0 L -12.5,0.0 L 5.0,5.0 L 0.0,0.0 z "
         style="fill-rule:evenodd;stroke:#000000;stroke-width:1.0pt"
         transform="scale(0.8) translate(12.5,0)" />
    </marker>
  </defs>
  <sodipodi:namedview
     id="base"
     pagecolor="#ffffff"
     bordercolor="#666666"
     borderopacity="1.0"
     inkscape:pageopacity="0.0"
     inkscape:pageshadow="2"
     inkscape:zoom="2.8"
     inkscape:cx="201.05788"
     inkscape:cy="96.704818"
     inkscape:document-units="px"
     inkscape:current-layer="layer1"
     showgrid="false"
     inkscape:window-width="1320"
     inkscape:window-height="927"
     inkscape:window-x="181"
     inkscape:window-y="69"
     inkscape:window-maximized="0"
     inkscape:snap-grids="true" />
  <metadata
     id="metadata7">
    <rdf:RDF>
      <cc:Work
         rdf:about="">
        <dc:format>image/svg+xml</dc:format>
        <dc:type
           rdf:resource="http://purl.org/dc/dcmitype/StillImage" />
        <dc:title></dc:title>
      </cc:Work>
    </rdf:RDF>
  </metadata>
  <g
     inkscape:label="Layer 1"
     inkscape:groupmode="layer"
     id="layer1"
     transform="translate(0,-852.36218)"
     style="display:inline">
    <path
       sodipodi:type="arc"
       style="fill:none;stroke:#9f9f9f;stroke-width:9.99999969;stroke-linecap:round;stroke-linejoin:round;stroke-miterlimit:4;stroke-opacity:1;stroke-dasharray:none;stroke-dashoffset:0;marker-start:none;marker-mid:none;marker-end:none"
       id="path2989"
       sodipodi:cx="100.51018"
       sodipodi:cy="101.00505"
       sodipodi:rx="100.51018"
       sodipodi:ry="100.0051"
       d="m 201.02036,101.00505 c 0,55.23129 -44.99994,100.0051 -100.51018,100.0051 C 44.999939,201.01015 0,156.23634 0,101.00505 0,45.773761 44.999939,0.99995422 100.51018,0.99995422 c 55.51024,0 100.51018,44.77380678 100.51018,100.00509578 z"
       transform="matrix(0.94198405,0,0,0.95189954,5.8548202,856.6232)" />
    <path
       style="fill:none;stroke:#9f9f9f;stroke-width:3.62299991;stroke-linecap:butt;stroke-linejoin:miter;stroke-miterlimit:4;stroke-opacity:1;stroke-dasharray:none"
       d="M 3.8332049,915.83261 53.71193,912.50189 66.090659,949.0748 23.296589,981.60758 z"
       id="path2990"
       inkscape:connector-curvature="0"
       sodipodi:nodetypes="ccccc" />
    <path
       style="fill:none;stroke:#9f9f9f;stroke-width:3.62299991;stroke-linecap:butt;stroke-linejoin:miter;stroke-miterlimit:4;stroke-opacity:1;stroke-dasharray:none;display:inline"
       d="m 28.596541,985.78471 41.544964,-33.63529 6.017939,0.15856 6.262279,-5.47665 14.177316,4.96921 7.863801,0.0268 16.0585,-0.12352 -3.92303,3.78588 -19.82347,-0.74159 -14.284342,-7.93553 -7.154303,6.41508 6.384439,7.50339 16.840331,2.58856 8.545515,3.04066 -2.49671,3.68002 -7.585738,-1.35632 -12.596836,-4.67019 -19.411633,-0.55117 -10.672626,8.23978 4.761476,9.39127 9.244346,-4.56782 9.966785,0.25484 16.800953,8.79264 z"
       id="path2990-3"
       inkscape:connector-curvature="0"
       sodipodi:nodetypes="cccccccccccccccccccccccc" />
    <path
       style="fill:none;stroke:#9f9f9f;stroke-width:3.62299991;stroke-linecap:butt;stroke-linejoin:miter;stroke-miterlimit:4;stroke-opacity:1;stroke-dasharray:none;display:inline"
       d="m 25.800678,990.86083 68.829594,-0.60882 2.424593,-3.04199 3.503205,2.30756 -6.167,7.89933 -67.993409,-0.17087 z"
       id="path2990-3-7"
       inkscape:connector-curvature="0"
       sodipodi:nodetypes="ccccccc" />
    <path
       style="fill:none;stroke:#9f9f9f;stroke-width:3.62299991;stroke-linecap:butt;stroke-linejoin:miter;stroke-miterlimit:4;stroke-opacity:1;stroke-dasharray:none;display:inline"
       d="m 110.23003,902.58886 2.08812,-8.73768 15.13038,-13.01956 16.43218,-2.68247 23.93385,18.65033 -10.6158,15.8548 -11.48638,-13.50472 -7.93198,0.62575 -3.51681,10.36745 -16.88628,-12.47981 z"
       id="path2990-3-2"
       inkscape:connector-curvature="0"
       sodipodi:nodetypes="ccccccccccc" />
    <path
       style="fill:none;stroke:#9f9f9f;stroke-width:3.62299991;stroke-linecap:butt;stroke-linejoin:miter;stroke-miterlimit:4;stroke-opacity:1;stroke-dasharray:none;display:inline"
       d="m 117.10842,929.85956 8.15954,-0.16629 4.73091,3.28899 4.74641,-4.86425 1.86003,2.13974 -3.97286,4.00338 7.319,4.74671 14.73157,-9.70118 3.20598,-15.75058 -12.73283,-14.59136 -8.04902,1.5937 -3.24352,9.29395 -16.26969,-12.97363 -7.21545,8.40997 3.62006,9.44116 7.79011,-5.3925 2.48011,5.74947 -4.23728,3.19591 -4.9557,-1.0733 1.87556,4.80123 -0.49104,3.16696 z"
       id="path2990-3-5"
       inkscape:connector-curvature="0"
       sodipodi:nodetypes="cccccccccccccccccccccc" />
    <path
       style="fill:none;stroke:#9f9f9f;stroke-width:3.62299991;stroke-linecap:butt;stroke-linejoin:miter;stroke-miterlimit:4;stroke-opacity:1;stroke-dasharray:none;display:inline"
       d="m 95.980283,969.05696 46.603527,16.23382 -9.91573,9.04465 21.4162,-19.28406 -0.29865,-28.31586 7.77381,-4.1834 5.16981,-23.56044 0.94437,26.69587 25.1742,-17.79326 -6.21529,62.91419 -44.4808,21.45033 -52.112518,-30.70184 z"
       id="path2990-3-5-7"
       inkscape:connector-curvature="0"
       sodipodi:nodetypes="ccccccccccccc" />
    <path
       style="fill:none;stroke:#9f9f9f;stroke-width:3.62299991;stroke-linecap:butt;stroke-linejoin:miter;stroke-miterlimit:4;stroke-opacity:1;stroke-dasharray:none;display:inline"
       d="m 117.62127,956.40792 -8.48074,-1.16793 -2.31658,11.05505 8.05924,2.48698 38.33109,4.38446 -4.04984,-37.2458 -3.15121,20.28006 z"
       id="path2990-0"
       inkscape:connector-curvature="0"
       sodipodi:nodetypes="cccccccc" />
    <path
       style="fill:none;stroke:#9f9f9f;stroke-width:3.62299991;stroke-linecap:butt;stroke-linejoin:miter;stroke-miterlimit:4;stroke-opacity:1;stroke-dasharray:none;display:inline"
       d="m 13.065447,923.4078 35.989127,-3.07818 8.843195,26.97646 -30.419701,22.93633 z"
       id="path2990-6"
       inkscape:connector-curvature="0"
       sodipodi:nodetypes="ccccc" />
    <path
       style="fill:none;stroke:#9f9f9f;stroke-width:3.62299991;stroke-linecap:butt;stroke-linejoin:miter;stroke-miterlimit:4;stroke-opacity:1;stroke-dasharray:none;display:inline"
       d="m 21.146667,929.72125 24.119835,-3.33072 1.014511,2.48026 -24.86386,1.72313 z"
       id="path2990-2"
       inkscape:connector-curvature="0"
       sodipodi:nodetypes="ccccc" />
    <path
       style="fill:none;stroke:#9f9f9f;stroke-width:3.62299991;stroke-linecap:butt;stroke-linejoin:miter;stroke-miterlimit:4;stroke-opacity:1;stroke-dasharray:none;display:inline"
       d="m 29.859234,956.11149 13.008157,-6.86626 0.761973,2.22773 -12.994568,8.03658 z"
       id="path2990-2-5"
       inkscape:connector-curvature="0"
       sodipodi:nodetypes="ccccc" />
    <path
       style="fill:none;stroke:#9f9f9f;stroke-width:3.62299991;stroke-linecap:butt;stroke-linejoin:miter;stroke-miterlimit:4;stroke-opacity:1;stroke-dasharray:none;display:inline"
       d="m 27.207583,942.72696 19.826687,-6.10865 0.509434,2.22773 -19.560559,7.27897 z"
       id="path2990-2-5-0"
       inkscape:connector-curvature="0"
       sodipodi:nodetypes="ccccc" />
  </g>
</svg>
