<?xml version="1.0" encoding="UTF-8" standalone="no"?>
<!-- Created with Inkscape (http://www.inkscape.org/) -->

<svg
   xmlns:dc="http://purl.org/dc/elements/1.1/"
   xmlns:cc="http://creativecommons.org/ns#"
   xmlns:rdf="http://www.w3.org/1999/02/22-rdf-syntax-ns#"
   xmlns:svg="http://www.w3.org/2000/svg"
   xmlns="http://www.w3.org/2000/svg"
   xmlns:sodipodi="http://sodipodi.sourceforge.net/DTD/sodipodi-0.dtd"
   xmlns:inkscape="http://www.inkscape.org/namespaces/inkscape"
   width="200"
   height="200"
   id="svg2"
   version="1.1"
   inkscape:version="0.48.4 r9939"
   sodipodi:docname="resetpass.svg"
   inkscape:export-filename="resetpass_100x100.png"
   inkscape:export-xdpi="45.472984"
   inkscape:export-ydpi="45.472984">
  <defs
     id="defs4">
    <marker
       inkscape:stockid="Arrow1Mend"
       orient="auto"
       refY="0.0"
       refX="0.0"
       id="Arrow1Mend"
       style="overflow:visible;">
      <path
         id="path3780"
         d="M 0.0,0.0 L 5.0,-5.0 L -12.5,0.0 L 5.0,5.0 L 0.0,0.0 z "
         style="fill-rule:evenodd;stroke:#000000;stroke-width:1.0pt;"
         transform="scale(0.4) rotate(180) translate(10,0)" />
    </marker>
    <marker
       inkscape:stockid="Arrow1Lstart"
       orient="auto"
       refY="0.0"
       refX="0.0"
       id="Arrow1Lstart"
       style="overflow:visible">
      <path
         id="path3771"
         d="M 0.0,0.0 L 5.0,-5.0 L -12.5,0.0 L 5.0,5.0 L 0.0,0.0 z "
         style="fill-rule:evenodd;stroke:#000000;stroke-width:1.0pt"
         transform="scale(0.8) translate(12.5,0)" />
    </marker>
  </defs>
  <sodipodi:namedview
     id="base"
     pagecolor="#ffffff"
     bordercolor="#666666"
     borderopacity="1.0"
     inkscape:pageopacity="0.0"
     inkscape:pageshadow="2"
     inkscape:zoom="0.49497475"
     inkscape:cx="373.13121"
     inkscape:cy="-39.726684"
     inkscape:document-units="px"
     inkscape:current-layer="layer1"
     showgrid="false"
     inkscape:window-width="970"
     inkscape:window-height="782"
     inkscape:window-x="269"
     inkscape:window-y="103"
     inkscape:window-maximized="0"
     inkscape:snap-grids="true" />
  <metadata
     id="metadata7">
    <rdf:RDF>
      <cc:Work
         rdf:about="">
        <dc:format>image/svg+xml</dc:format>
        <dc:type
           rdf:resource="http://purl.org/dc/dcmitype/StillImage" />
        <dc:title></dc:title>
      </cc:Work>
    </rdf:RDF>
  </metadata>
  <g
     inkscape:label="Layer 1"
     inkscape:groupmode="layer"
     id="layer1"
     transform="translate(0,-852.36218)"
     style="display:inline">
    <path
       sodipodi:type="arc"
       style="fill:none;stroke:#9f9f9f;stroke-width:9.99999969;stroke-linecap:round;stroke-linejoin:round;stroke-miterlimit:4;stroke-opacity:1;stroke-dasharray:none;stroke-dashoffset:0;marker-start:none;marker-mid:none;marker-end:none"
       id="path2989"
       sodipodi:cx="100.51018"
       sodipodi:cy="101.00505"
       sodipodi:rx="100.51018"
       sodipodi:ry="100.0051"
       d="m 201.02036,101.00505 c 0,55.23129 -44.99994,100.0051 -100.51018,100.0051 C 44.999939,201.01015 0,156.23634 0,101.00505 0,45.773761 44.999939,0.99995422 100.51018,0.99995422 c 55.51024,0 100.51018,44.77380678 100.51018,100.00509578 z"
       transform="matrix(0.94198405,0,0,0.95189954,5.8548202,856.6232)" />
    <g
       id="g3774"
       transform="matrix(1.0262732,0,0,1.0327451,-9.1482122,-26.580006)">
      <path
         sodipodi:nodetypes="ccccccccccccccccccc"
         inkscape:connector-curvature="0"
         id="path2990"
         d="m 59.048044,959.84731 34.411346,-34.89847 -0.245104,-26.51523 18.283004,-19.22444 25.76812,-0.0433 18.53553,17.21157 0.0867,26.4137 -17.219,19.00471 -28.71936,-0.0359 -9.94924,10.60225 1.42857,7.85715 -9.999999,-0.35715 -4.642857,4.64286 2.5,6.78571 -4.642857,5.35715 -9.285714,0 -8.214286,7.5 c -6.977629,0.19719 -6.688826,0.0986 -16.002718,-0.77557 z"
         style="fill:none;stroke:#9f9f9f;stroke-width:4;stroke-linecap:butt;stroke-linejoin:miter;stroke-miterlimit:4;stroke-opacity:1;stroke-dasharray:none" />
      <path
         sodipodi:nodetypes="ccccc"
         inkscape:connector-curvature="0"
         id="path3772"
         d="m 123.23862,888.21239 -9.59646,10.10153 c 12.51348,12.31094 -1.40363,-1.55634 11.11168,10.35406 l 9.34392,-10.85914 z"
         style="fill:none;stroke:#9f9f9f;stroke-width:4;stroke-linecap:butt;stroke-linejoin:miter;stroke-miterlimit:4;stroke-opacity:1;stroke-dasharray:none" />
    </g>
    <text
       xml:space="preserve"
       style="font-size:52.67726517px;font-style:normal;font-weight:normal;line-height:125%;letter-spacing:0px;word-spacing:0px;fill:#9f9f9f;fill-opacity:1;stroke:none;font-family:Sans"
       x="43.181293"
       y="954.14093"
       id="text3778"
       sodipodi:linespacing="125%"
       transform="scale(0.92047238,1.0863987)"><tspan
         sodipodi:role="line"
         id="tspan3780"
         x="43.181293"
         y="954.14093">*****</tspan></text>
  </g>
</svg>
