<?xml version="1.0" encoding="UTF-8" standalone="no"?>
<!-- Created with Inkscape (http://www.inkscape.org/) -->

<svg
   xmlns:dc="http://purl.org/dc/elements/1.1/"
   xmlns:cc="http://creativecommons.org/ns#"
   xmlns:rdf="http://www.w3.org/1999/02/22-rdf-syntax-ns#"
   xmlns:svg="http://www.w3.org/2000/svg"
   xmlns="http://www.w3.org/2000/svg"
   xmlns:sodipodi="http://sodipodi.sourceforge.net/DTD/sodipodi-0.dtd"
   xmlns:inkscape="http://www.inkscape.org/namespaces/inkscape"
   width="200"
   height="200"
   id="svg2"
   version="1.1"
   inkscape:version="0.48.4 r9939"
   sodipodi:docname="tools.svg"
   inkscape:export-filename="tools_100x100.png"
   inkscape:export-xdpi="45"
   inkscape:export-ydpi="45">
  <defs
     id="defs4">
    <marker
       inkscape:stockid="Arrow1Mend"
       orient="auto"
       refY="0.0"
       refX="0.0"
       id="Arrow1Mend"
       style="overflow:visible;">
      <path
         id="path3780"
         d="M 0.0,0.0 L 5.0,-5.0 L -12.5,0.0 L 5.0,5.0 L 0.0,0.0 z "
         style="fill-rule:evenodd;stroke:#000000;stroke-width:1.0pt;"
         transform="scale(0.4) rotate(180) translate(10,0)" />
    </marker>
    <marker
       inkscape:stockid="Arrow1Lstart"
       orient="auto"
       refY="0.0"
       refX="0.0"
       id="Arrow1Lstart"
       style="overflow:visible">
      <path
         id="path3771"
         d="M 0.0,0.0 L 5.0,-5.0 L -12.5,0.0 L 5.0,5.0 L 0.0,0.0 z "
         style="fill-rule:evenodd;stroke:#000000;stroke-width:1.0pt"
         transform="scale(0.8) translate(12.5,0)" />
    </marker>
  </defs>
  <sodipodi:namedview
     id="base"
     pagecolor="#ffffff"
     bordercolor="#666666"
     borderopacity="1.0"
     inkscape:pageopacity="0.0"
     inkscape:pageshadow="2"
     inkscape:zoom="1.979899"
     inkscape:cx="202.04071"
     inkscape:cy="66.155391"
     inkscape:document-units="px"
     inkscape:current-layer="layer1"
     showgrid="false"
     inkscape:window-width="1865"
     inkscape:window-height="1056"
     inkscape:window-x="55"
     inkscape:window-y="24"
     inkscape:window-maximized="1"
     inkscape:snap-grids="true" />
  <metadata
     id="metadata7">
    <rdf:RDF>
      <cc:Work
         rdf:about="">
        <dc:format>image/svg+xml</dc:format>
        <dc:type
           rdf:resource="http://purl.org/dc/dcmitype/StillImage" />
        <dc:title></dc:title>
      </cc:Work>
    </rdf:RDF>
  </metadata>
  <g
     inkscape:label="Layer 1"
     inkscape:groupmode="layer"
     id="layer1"
     transform="translate(0,-852.36218)"
     style="display:inline">
    <path
       sodipodi:type="arc"
       style="fill:none;stroke:#9f9f9f;stroke-width:9.99999969;stroke-linecap:round;stroke-linejoin:round;stroke-miterlimit:4;stroke-opacity:1;stroke-dasharray:none;stroke-dashoffset:0;marker-start:none;marker-mid:none;marker-end:none"
       id="path2989"
       sodipodi:cx="100.51018"
       sodipodi:cy="101.00505"
       sodipodi:rx="100.51018"
       sodipodi:ry="100.0051"
       d="m 201.02036,101.00505 c 0,55.23129 -44.99994,100.0051 -100.51018,100.0051 C 44.999939,201.01015 0,156.23634 0,101.00505 0,45.773761 44.999939,0.99995422 100.51018,0.99995422 c 55.51024,0 100.51018,44.77380678 100.51018,100.00509578 z"
       transform="matrix(0.94198405,0,0,0.95189954,5.8548202,856.6232)" />
    <path
       style="fill:#9f9f9f;fill-opacity:1;stroke:#9f9f9f;stroke-width:3;stroke-linecap:butt;stroke-linejoin:miter;stroke-miterlimit:4;stroke-opacity:1;stroke-dasharray:none"
       d="m 42.208597,50.403077 6.452095,9.342481 -9.783631,8.686073 -7.34946,-12.373731 -1.183851,10.3796 -3.03125,1.40625 10.1875,15 -2.3125,57.5 13.75,0.5625 L 47.5,80.34375 58.75,61.4375 54.8125,56.0625 z m 3.510153,76.556743 2.6875,6.97768 -8.40625,5 -3.03125,-8.20982 z"
       transform="translate(0,852.36218)"
       id="path3175"
       inkscape:connector-curvature="0"
       sodipodi:nodetypes="cccccccccccccccccc" />
    <path
       style="fill:#9f9f9f;stroke:#9f9f9f;stroke-width:4;stroke-linecap:butt;stroke-linejoin:miter;stroke-miterlimit:4;stroke-opacity:1;stroke-dasharray:none;fill-opacity:1"
       d="m 90.66119,108.32866 c 0.378808,-0.50508 1.767767,-72.604716 1.767767,-72.604716 L 82.327432,33.4511 l -4.419417,7.576144 -8.712566,0.378807 -0.252538,-16.920055 13.005714,-0.252538 1.136421,2.146574 25.885164,-0.126269 19.69797,15.404826 -24.74874,-4.166879 3.15673,71.21575 z"
       id="path3961"
       inkscape:connector-curvature="0"
       transform="translate(0,852.36218)"
       sodipodi:nodetypes="ccccccccccccc" />
    <path
       style="fill:#9f9f9f;fill-opacity:1;stroke:#9f9f9f;stroke-width:3;stroke-linecap:butt;stroke-linejoin:miter;stroke-miterlimit:4;stroke-opacity:1;stroke-dasharray:none"
       d="m 168.16874,981.47402 4.54569,2.65165 0.25254,-20.96067 -8.46003,-20.96067 -6.56599,-16.54124 3.53553,-10.2278 -5.93465,-12.37437 -2.27284,5.80838 3.91435,7.70241 -6.566,7.57615 -7.44987,-9.21765 5.42957,-7.57614 -2.14658,-6.18718 -7.95495,14.01586 4.92449,11.23795 -5.6821,16.16244 -9.34392,23.35978 0,17.80394 5.05077,-2.52538 0,-14.01587 17.04632,-40.4061 17.67767,39.14341 z"
       id="path3963"
       inkscape:connector-curvature="0"
       sodipodi:nodetypes="ccccccccccccccccccccccc" />
    <path
       style="fill:#9f9f9f;stroke:#9f9f9f;stroke-width:3;stroke-linecap:butt;stroke-linejoin:miter;stroke-opacity:1;stroke-miterlimit:4;stroke-dasharray:none;fill-opacity:1"
       d="M 61.625 109.71875 L 62 173.625 L 148 173.21875 L 147.59375 170.3125 L 61.625 109.71875 z M 72.59375 128.65625 C 73.098826 129.54013 127.03125 166.03125 127.03125 166.03125 L 73.625 164.28125 C 73.625 164.28125 72.088673 127.77236 72.59375 128.65625 z "
       transform="translate(0,852.36218)"
       id="path3965" />
  </g>
</svg>
