<?xml version="1.0" encoding="UTF-8" standalone="no"?>
<svg
   xmlns:dc="http://purl.org/dc/elements/1.1/"
   xmlns:cc="http://creativecommons.org/ns#"
   xmlns:rdf="http://www.w3.org/1999/02/22-rdf-syntax-ns#"
   xmlns:svg="http://www.w3.org/2000/svg"
   xmlns="http://www.w3.org/2000/svg"
   xmlns:sodipodi="http://sodipodi.sourceforge.net/DTD/sodipodi-0.dtd"
   xmlns:inkscape="http://www.inkscape.org/namespaces/inkscape"
   height="32px"
   style="enable-background:new 0 0 32 32;"
   version="1.1"
   viewBox="0 0 32 32"
   width="32px"
   xml:space="preserve"
   id="svg2"
   inkscape:version="0.91 r13725"
   sodipodi:docname="show.svg"
   inkscape:export-filename="show_20x20.png"
   inkscape:export-xdpi="56.25"
   inkscape:export-ydpi="56.25"><metadata
     id="metadata15"><rdf:RDF><cc:Work
         rdf:about=""><dc:format>image/svg+xml</dc:format><dc:type
           rdf:resource="http://purl.org/dc/dcmitype/StillImage" /><dc:title></dc:title></cc:Work></rdf:RDF></metadata><defs
     id="defs13" /><sodipodi:namedview
     pagecolor="#ffffff"
     bordercolor="#666666"
     borderopacity="1"
     objecttolerance="10"
     gridtolerance="10"
     guidetolerance="10"
     inkscape:pageopacity="0"
     inkscape:pageshadow="2"
     inkscape:window-width="1585"
     inkscape:window-height="659"
     id="namedview11"
     showgrid="false"
     inkscape:zoom="14.75"
     inkscape:cx="7.3209713"
     inkscape:cy="16.222564"
     inkscape:window-x="255"
     inkscape:window-y="84"
     inkscape:window-maximized="0"
     inkscape:current-layer="svg2" /><path
     style="fill:#9f9f9f;fill-opacity:1;stroke:none;stroke-opacity:1"
     d="M 15.535222,6.9589181 C 9.9282085,6.9539427 5.0985579,11.099691 0.87311306,15.841731 15.563361,28.645953 17.041814,29.030408 30.113347,16.177669 24.728302,9.4790789 19.896233,6.9627879 15.535222,6.9589181 Z m -0.613281,3.0410156 c 3.430022,-0.211602 7.146657,1.5699593 11.83789,6.0742193 C 18.677555,24.780199 12.942321,24.382708 4.8028006,15.882747 8.347743,12.416652 11.491919,10.211536 14.921941,9.9999337 Z m 0.335937,1.4003913 c -5.234058,0.216945 -5.9416695,9.304526 -0.242187,9.251953 7.926471,-0.101164 6.224841,-9.049198 0.242187,-9.251953 z m 0.05469,3.140625 c 1.663328,0.06682 2.139292,3.017444 -0.06445,3.050781 -1.5846,0.01732 -1.390738,-2.979291 0.06445,-3.050781 z"
     id="path9-6"
     inkscape:connector-curvature="0" /></svg>