<?xml version="1.0" encoding="UTF-8" standalone="no"?>
<!-- Created with Inkscape (http://www.inkscape.org/) -->

<svg
   xmlns:dc="http://purl.org/dc/elements/1.1/"
   xmlns:cc="http://creativecommons.org/ns#"
   xmlns:rdf="http://www.w3.org/1999/02/22-rdf-syntax-ns#"
   xmlns:svg="http://www.w3.org/2000/svg"
   xmlns="http://www.w3.org/2000/svg"
   xmlns:xlink="http://www.w3.org/1999/xlink"
   xmlns:sodipodi="http://sodipodi.sourceforge.net/DTD/sodipodi-0.dtd"
   xmlns:inkscape="http://www.inkscape.org/namespaces/inkscape"
   width="200"
   height="200"
   id="svg2"
   version="1.1"
   inkscape:version="0.48.4 r9939"
   sodipodi:docname="hashes.svg"
   inkscape:export-filename="hashes.png"
   inkscape:export-xdpi="67.083908"
   inkscape:export-ydpi="67.083908">
  <defs
     id="defs4">
    <linearGradient
       inkscape:collect="always"
       id="linearGradient3963">
      <stop
         style="stop-color:#9f9f9f;stop-opacity:1;"
         offset="0"
         id="stop3965" />
      <stop
         style="stop-color:#9f9f9f;stop-opacity:0;"
         offset="1"
         id="stop3967" />
    </linearGradient>
    <linearGradient
       inkscape:collect="always"
       id="linearGradient3955">
      <stop
         style="stop-color:#9f9f9f;stop-opacity:1;"
         offset="0"
         id="stop3957" />
      <stop
         style="stop-color:#9f9f9f;stop-opacity:0;"
         offset="1"
         id="stop3959" />
    </linearGradient>
    <marker
       inkscape:stockid="Arrow1Mend"
       orient="auto"
       refY="0.0"
       refX="0.0"
       id="Arrow1Mend"
       style="overflow:visible;">
      <path
         id="path3780"
         d="M 0.0,0.0 L 5.0,-5.0 L -12.5,0.0 L 5.0,5.0 L 0.0,0.0 z "
         style="fill-rule:evenodd;stroke:#000000;stroke-width:1.0pt;"
         transform="scale(0.4) rotate(180) translate(10,0)" />
    </marker>
    <marker
       inkscape:stockid="Arrow1Lstart"
       orient="auto"
       refY="0.0"
       refX="0.0"
       id="Arrow1Lstart"
       style="overflow:visible">
      <path
         id="path3771"
         d="M 0.0,0.0 L 5.0,-5.0 L -12.5,0.0 L 5.0,5.0 L 0.0,0.0 z "
         style="fill-rule:evenodd;stroke:#000000;stroke-width:1.0pt"
         transform="scale(0.8) translate(12.5,0)" />
    </marker>
    <linearGradient
       inkscape:collect="always"
       xlink:href="#linearGradient3955"
       id="linearGradient3961"
       x1="29.297277"
       y1="975.21418"
       x2="179.03798"
       y2="975.21418"
       gradientUnits="userSpaceOnUse" />
    <radialGradient
       inkscape:collect="always"
       xlink:href="#linearGradient3963"
       id="radialGradient3971"
       cx="104.16763"
       cy="975.21417"
       fx="104.16763"
       fy="975.21417"
       r="74.870354"
       gradientTransform="matrix(1,0,0,0.3355721,0,647.95952)"
       gradientUnits="userSpaceOnUse" />
  </defs>
  <sodipodi:namedview
     id="base"
     pagecolor="#ffffff"
     bordercolor="#666666"
     borderopacity="1.0"
     inkscape:pageopacity="0.0"
     inkscape:pageshadow="2"
     inkscape:zoom="3.959798"
     inkscape:cx="86.395083"
     inkscape:cy="83.973775"
     inkscape:document-units="px"
     inkscape:current-layer="layer1"
     showgrid="false"
     inkscape:window-width="1320"
     inkscape:window-height="927"
     inkscape:window-x="140"
     inkscape:window-y="56"
     inkscape:window-maximized="0"
     inkscape:snap-grids="true" />
  <metadata
     id="metadata7">
    <rdf:RDF>
      <cc:Work
         rdf:about="">
        <dc:format>image/svg+xml</dc:format>
        <dc:type
           rdf:resource="http://purl.org/dc/dcmitype/StillImage" />
        <dc:title />
      </cc:Work>
    </rdf:RDF>
  </metadata>
  <g
     inkscape:label="Layer 1"
     inkscape:groupmode="layer"
     id="layer1"
     transform="translate(0,-852.36218)"
     style="display:inline">
    <rect
       style="fill:none;stroke:#9f9f9f;stroke-width:10.80000019;stroke-linecap:round;stroke-linejoin:bevel;stroke-miterlimit:4;stroke-opacity:1;stroke-dasharray:none;stroke-dashoffset:0"
       id="rect2990"
       width="177.28177"
       height="178.29193"
       x="12.10266"
       y="862.96057"
       ry="22.728432"
       transform="matrix(1,-2.0135378e-5,2.0135378e-5,1,0,0)" />
    <g
       id="g3973"
       transform="translate(-1.0714286,-17.857143)">
      <path
         sodipodi:nodetypes="ccccccccccccccc"
         inkscape:connector-curvature="0"
         id="path3028"
         d="m 78.714914,945.89284 25.431056,0.48947 8.60274,-5.18012 12.31287,6.66927 7.58026,-7.94106 7.40863,8.02126 11.94592,0.66712 6.47063,-9.67949 11.01238,8.7298 10.86444,-10.0667 -0.0792,-20.98695 -100.987245,-0.49901 C 76.655131,880.11451 21.480593,895.04187 22.448771,912.13758 l 0.01563,35.22772 c -0.100789,22.15219 56.201272,29.00943 56.250513,-1.47246 z"
         style="fill:none;stroke:#9f9f9f;stroke-width:3.5999999;stroke-linecap:butt;stroke-linejoin:miter;stroke-miterlimit:4;stroke-opacity:1;stroke-dasharray:none" />
      <path
         transform="translate(-9.4642857,839.86218)"
         d="m 58.035713,77.589287 c 0,4.78318 -3.75761,8.660714 -8.392856,8.660714 -4.635247,0 -8.392857,-3.877534 -8.392857,-8.660714 0,-4.783181 3.75761,-8.660714 8.392857,-8.660714 4.635246,0 8.392856,3.877533 8.392856,8.660714 z"
         sodipodi:ry="8.6607141"
         sodipodi:rx="8.3928566"
         sodipodi:cy="77.589287"
         sodipodi:cx="49.642857"
         id="path3951"
         style="fill:none;stroke:#9f9f9f;stroke-width:3.5999999;stroke-linecap:round;stroke-linejoin:round;stroke-miterlimit:4;stroke-opacity:1;stroke-dasharray:none;stroke-dashoffset:0"
         sodipodi:type="arc" />
    </g>
    <path
       style="fill:none;stroke:#9f9f9f;stroke-width:7.2;stroke-linecap:butt;stroke-linejoin:miter;stroke-miterlimit:4;stroke-opacity:1;stroke-dasharray:none"
       d="m 30.57742,1020.0373 -0.505077,-65.65992 0.505077,32.32488 27.779195,-0.75761 0.505076,-32.07234 -0.757615,65.40739"
       id="path3002"
       inkscape:connector-curvature="0" />
    <path
       style="fill:none;stroke:#9f9f9f;stroke-width:7.2;stroke-linecap:butt;stroke-linejoin:miter;stroke-miterlimit:4;stroke-opacity:1;stroke-dasharray:none"
       d="m 76.034284,974.58043 c 23.019016,-7.08282 19.656755,6.54223 21.71828,15.90991 -6.66456,0.61555 -15.722497,0.85701 -18.404646,4.53299 -9.081704,11.64607 -3.487734,17.15797 4.26251,25.77157 5.988161,6.7193 11.606808,-14.7519 14.647212,-29.29441 l -0.505076,30.38381"
       id="path3004"
       inkscape:connector-curvature="0"
       sodipodi:nodetypes="cccccc" />
    <path
       style="fill:none;stroke:#9f9f9f;stroke-width:7.2;stroke-linecap:butt;stroke-linejoin:miter;stroke-miterlimit:4;stroke-opacity:1;stroke-dasharray:none"
       d="m 130.83506,974.3279 c -7.74722,-1.22492 -7.57615,-1.01015 -11.36422,-1.51523 -5.57571,-0.22296 -12.8839,4.8924 -7.07106,17.67767 3.09589,6.4951 12.07111,3.28771 18.18274,9.84896 2.71192,6.3428 5.15645,12.7189 -5.3033,20.7082 -10.36628,4.5686 -10.03792,-2.7457 -14.89975,-4.2932"
       id="path3006"
       inkscape:connector-curvature="0"
       sodipodi:nodetypes="cccccc" />
    <path
       style="fill:none;stroke:#9f9f9f;stroke-width:7.2;stroke-linecap:butt;stroke-linejoin:miter;stroke-miterlimit:4;stroke-opacity:1;stroke-dasharray:none"
       d="m 147.25004,951.852 -0.75762,69.1955 1.26269,-38.13331 c 24.67036,-30.92153 21.28293,14.81846 21.71828,35.86041"
       id="path3008"
       inkscape:connector-curvature="0"
       sodipodi:nodetypes="cccc" />
    <path
       style="fill:none;stroke:#9f9f9f;stroke-width:3.5999999;stroke-linecap:butt;stroke-linejoin:miter;stroke-miterlimit:4;stroke-opacity:1;stroke-dasharray:none"
       d="m 49.732143,906.11218 11.071429,5.26785 -5.982143,-2.94643 0.08929,-5 0.08928,9.73215 0.08929,-5 5.446429,-2.32143 -10.803572,5.53571"
       id="path3790"
       inkscape:connector-curvature="0" />
    <path
       style="fill:none;stroke:#9f9f9f;stroke-width:3.5999999;stroke-linecap:butt;stroke-linejoin:miter;stroke-miterlimit:4;stroke-opacity:1;stroke-dasharray:none;display:inline"
       d="m 62.946429,906.15682 11.071429,5.26786 -5.982143,-2.94643 0.08929,-5 0.08928,9.73214 0.08929,-5 5.446429,-2.32142 -10.803572,5.53571"
       id="path3790-5"
       inkscape:connector-curvature="0" />
    <path
       style="fill:none;stroke:#9f9f9f;stroke-width:3.5999999;stroke-linecap:butt;stroke-linejoin:miter;stroke-miterlimit:4;stroke-opacity:1;stroke-dasharray:none;display:inline"
       d="m 76.160715,905.53182 11.071429,5.26786 -5.982143,-2.94643 0.08929,-5 0.08928,9.73214 0.08929,-5 5.446429,-2.32142 -10.803572,5.53571"
       id="path3790-6"
       inkscape:connector-curvature="0" />
    <path
       style="fill:none;stroke:#9f9f9f;stroke-width:3.5999999;stroke-linecap:butt;stroke-linejoin:miter;stroke-miterlimit:4;stroke-opacity:1;stroke-dasharray:none;display:inline"
       d="m 89.732142,905.6211 11.071428,5.26786 -5.982142,-2.94643 0.08929,-5 0.08928,9.73214 0.08929,-5 5.446432,-2.32142 -10.803575,5.53571"
       id="path3790-7"
       inkscape:connector-curvature="0" />
    <path
       style="fill:none;stroke:#9f9f9f;stroke-width:3.5999999;stroke-linecap:butt;stroke-linejoin:miter;stroke-miterlimit:4;stroke-opacity:1;stroke-dasharray:none;display:inline"
       d="m 103.48215,905.71039 11.07142,5.26786 -5.98214,-2.94643 0.0893,-5 0.0893,9.73214 0.0893,-5 5.44643,-2.32142 -10.80357,5.53571"
       id="path3790-1"
       inkscape:connector-curvature="0" />
    <path
       style="fill:none;stroke:#9f9f9f;stroke-width:3.5999999;stroke-linecap:butt;stroke-linejoin:miter;stroke-miterlimit:4;stroke-opacity:1;stroke-dasharray:none;display:inline"
       d="m 117.32143,905.71039 11.07143,5.26786 -5.98214,-2.94643 0.0893,-5 0.0893,9.73214 0.0893,-5 5.44642,-2.32142 -10.80357,5.53571"
       id="path3790-15"
       inkscape:connector-curvature="0" />
    <path
       style="fill:none;stroke:#9f9f9f;stroke-width:3.5999999;stroke-linecap:butt;stroke-linejoin:miter;stroke-miterlimit:4;stroke-opacity:1;stroke-dasharray:none;display:inline"
       d="m 130.71428,905.97826 11.07143,5.26786 -5.98214,-2.94643 0.0893,-5 0.0893,9.73214 0.0893,-5 5.44643,-2.32142 -10.80357,5.53571"
       id="path3790-55"
       inkscape:connector-curvature="0" />
    <path
       style="fill:none;stroke:#9f9f9f;stroke-width:3.5999999;stroke-linecap:butt;stroke-linejoin:miter;stroke-miterlimit:4;stroke-opacity:1;stroke-dasharray:none;display:inline"
       d="m 144.375,905.71039 11.07143,5.26786 -5.98215,-2.94643 0.0893,-5 0.0893,9.73214 0.0893,-5 5.44643,-2.32142 -10.80357,5.53571"
       id="path3790-54"
       inkscape:connector-curvature="0" />
    <path
       style="fill:none;stroke:#9f9f9f;stroke-width:3.5999999;stroke-linecap:butt;stroke-linejoin:miter;stroke-miterlimit:4;stroke-opacity:1;stroke-dasharray:none;display:inline"
       d="m 157.94643,905.97826 11.07143,5.26786 -5.98214,-2.94643 0.0893,-5 0.0893,9.73214 0.0893,-5 5.44643,-2.32142 -10.80358,5.53571"
       id="path3790-0"
       inkscape:connector-curvature="0" />
  </g>
</svg>
